<svg width="156" height="50" viewBox="0 0 156 50" fill="none" xmlns="http://www.w3.org/2000/svg">
<path d="M39.6151 6.1H44.6151V14H39.6151V21H31.1651V0.499997H39.6151V6.1ZM29.1651 18.6C26.9651 19.55 22.9651 20.1 18.9651 20.1H0.46514V0.749997H9.01514V13.15H19.3151C23.1651 13.15 26.9151 12.65 29.1651 11.75V18.6ZM10.3151 35.5V37.3H40.0651V43.2H1.96514V30.2H31.2651V28.4H1.86514V22.5H39.6151V35.5H10.3151ZM79.9108 0.499997H88.1608V43.2H79.9108V38.35L75.0608 40.85L70.7108 30.8C68.5108 37.05 65.1108 40.55 59.9108 41.2H59.8608V41.05L56.6108 31.55C54.4108 37.35 51.0608 40.6 46.0608 41.2V32.55C50.8608 31.45 52.3108 19.25 52.3108 1.35L60.1608 1.65C60.1108 8.5 59.8608 14.55 59.2608 19.7L63.0108 29.75C65.3108 24.8 66.1108 14.65 66.1108 1.35L73.9608 1.65C73.9108 8.55 73.6608 14.55 73.0608 19.7L79.9108 34.25V0.499997ZM96.4015 34.43C98.3965 34.43 99.8665 35.935 99.8665 37.93C99.8665 39.925 98.3965 41.43 96.4015 41.43C94.3715 41.43 92.9015 39.925 92.9015 37.93C92.9015 35.935 94.3715 34.43 96.4015 34.43ZM110.365 35.865H121.18V41.15H101.93V36.985L112.08 25.925H102.385V20.64H120.515V24.805L110.365 35.865ZM126.454 10.735C128.659 10.735 130.269 12.345 130.269 14.55C130.269 16.755 128.659 18.365 126.454 18.365C124.249 18.365 122.639 16.755 122.639 14.55C122.639 12.345 124.249 10.735 126.454 10.735ZM129.569 20.64V41.22H123.339V20.64H129.569ZM133.543 49.69V20.64H139.773V22.74C140.998 21.095 142.958 20.15 145.653 20.15C151.533 20.15 155.628 24.665 155.628 30.895C155.628 37.125 151.533 41.64 145.653 41.64C142.958 41.64 140.998 40.695 139.773 39.05V49.69H133.543ZM144.673 36.32C147.648 36.32 149.538 34.045 149.538 30.895C149.538 27.745 147.648 25.47 144.673 25.47C141.628 25.47 139.668 27.745 139.668 30.895C139.668 34.045 141.628 36.32 144.673 36.32Z" fill="url(#paint0_linear_3_529)"/>
<defs>
<linearGradient id="paint0_linear_3_529" x1="1.00001" y1="-8.50003" x2="181" y2="54.5" gradientUnits="userSpaceOnUse">
<stop stop-color="#3EA8FF"/>
<stop offset="0.9999" stop-color="#FFF389" stop-opacity="0.88"/>
<stop offset="1" stop-color="#D1E8FB"/>
</linearGradient>
</defs>
</svg>
